# xmcd
#
# Track frame offsets:
#  182
#  18917
#  31642
#  46947
#  63235
#  83225
#  92200
#  106442
#  117980
#  131957
#  150980
#  170702
#  181132
#  196657
#  209092
#  221455
#  237485
#  251620
#  259602
#  278307
#
# Disc length: 3928 seconds
#
# Revision: 0
# Processed by: cddbd v1.5.2PL0 Copyright (c) Steve Scherf et al.
# Submitted via: AltoMP3_Maker 3.0
#
DISCID=0e0f5614
DTITLE=Ralph McTell - Streets Of London
DYEAR=1900
DGENRE=
TTITLE0=Steets of London
TTITLE1=Hesitation Blues
TTITLE2=Girl On A Bicycle
TTITLE3=Clown
TTITLE4=Michael in the Garden
TTITLE5=Blind Blakes Rag
TTITLE6=Nanna's Song
TTITLE7=Last Train and Ride
TTITLE8=England 1914
TTITLE9=The Mermaid and the Seagull
TTITLE10=Daddy's here
TTITLE11=Kew Gardens
TTITLE12=Eight Frames a Second
TTITLE13=Mrs. Adlams Angles
TTITLE14=Kindhearted Woman Blues
TTITLE15=Spiral Staircase
TTITLE16=Wait until the Snow
TTITLE17=Rizraklaru
TTITLE18=The Fairground
TTITLE19=Are You Receiving Me
EXTD=
EXTT0=
EXTT1=
EXTT2=
EXTT3=
EXTT4=
EXTT5=
EXTT6=
EXTT7=
EXTT8=
EXTT9=
EXTT10=
EXTT11=
EXTT12=
EXTT13=
EXTT14=
EXTT15=
EXTT16=
EXTT17=
EXTT18=
EXTT19=
PLAYORDER=
